<svg xmlns="http://www.w3.org/2000/svg" version="1.1" xmlns:xlink="http://www.w3.org/1999/xlink" xmlns:svgjs="http://svgjs.dev/svgjs" width="1500" height="1500" viewBox="0 0 1500 1500"><rect width="1500" height="1500" fill="#ffffff"></rect><g transform="matrix(0.6666666666666666,0,0,0.6666666666666666,249.39393939393938,438.5856950067477)"><svg viewBox="0 0 396 247" data-background-color="#ffffff" preserveAspectRatio="xMidYMid meet" height="935" width="1500" xmlns="http://www.w3.org/2000/svg" xmlns:xlink="http://www.w3.org/1999/xlink"><g id="tight-bounds" transform="matrix(1,0,0,1,0.2400000000000091,-0.09999999999999432)"><svg viewBox="0 0 395.52 247.2" height="247.2" width="395.52"><g><svg></svg></g><g><svg viewBox="0 0 395.52 247.2" height="247.2" width="395.52"><g transform="matrix(1,0,0,1,75.54432,95.21650053162236)"><svg viewBox="0 0 244.43135999999998 56.766998936755265" height="56.766998936755265" width="244.43135999999998"><g><svg viewBox="0 0 244.43135999999998 56.766998936755265" height="56.766998936755265" width="244.43135999999998"><g><svg viewBox="0 0 244.43135999999998 56.766998936755265" height="56.766998936755265" width="244.43135999999998"><g><svg viewBox="0 0 244.43135999999998 56.766998936755265" height="56.766998936755265" width="244.43135999999998"><g id="textblocktransform"><svg viewBox="0 0 244.43135999999998 56.766998936755265" height="56.766998936755265" width="244.43135999999998" id="textblock"><g><svg viewBox="0 0 244.43135999999998 56.766998936755265" height="56.766998936755265" width="244.43135999999998"><g transform="matrix(1,0,0,1,0,0)"><svg width="244.43135999999998" viewBox="4.5 -37.75 218.19 50.68" height="56.766998936755265" data-palette-color="#152232"><path d="M14.5 0L5.25 0 5.25-32.25 4.5-37.25Q6-37.45 7.59-37.6 9.18-37.75 10.8-37.75L10.8-37.75Q13.7-37.75 16.32-37.39 18.95-37.02 20.94-36.08 22.93-35.13 24.1-33.46 25.28-31.8 25.28-29.23L25.28-29.23Q25.28-26.5 24.1-24.53 22.93-22.55 20.75-21.5L20.75-21.5 16.9-20.4 20.58-20.05Q22.1-19.6 23.45-18.89 24.8-18.18 25.79-17.15 26.78-16.13 27.35-14.73 27.93-13.33 27.93-11.5L27.93-11.5Q27.93-9.38 27.36-7.7 26.8-6.03 25.83-4.75 24.85-3.48 23.55-2.56 22.25-1.65 20.76-1.09 19.28-0.53 17.68-0.26 16.07 0 14.5 0L14.5 0ZM9.88-18.25L9.88-4 12.63-4Q15.1-4 17.04-4.36 18.98-4.73 20.31-5.56 21.65-6.4 22.35-7.79 23.05-9.18 23.05-11.25L23.05-11.25Q23.05-13.13 22.4-14.45 21.75-15.78 20.56-16.63 19.38-17.48 17.7-17.86 16.03-18.25 14-18.25L14-18.25 9.88-18.25ZM8.97-34L9.88-28.68 9.88-22.13 12.5-22.13Q14.03-22.2 15.51-22.6 17-23 18.16-23.79 19.33-24.58 20.04-25.79 20.75-27 20.75-28.7L20.75-28.7Q20.75-30.35 19.99-31.44 19.23-32.52 18.03-33.15 16.82-33.77 15.34-34.02 13.85-34.27 12.43-34.27L12.43-34.27Q11.58-34.27 10.66-34.21 9.75-34.15 8.97-34L8.97-34ZM50.27-27.5L50.27-9.83Q50.27-8.53 50.44-7.43 50.6-6.33 50.97-5.53 51.35-4.73 51.97-4.28 52.6-3.83 53.52-3.83L53.52-3.83Q54.75-3.83 55.91-4.03 57.07-4.23 58-4.49 58.92-4.75 59.54-4.98 60.15-5.2 60.3-5.25L60.3-5.25 61.27-1.4Q61.12-1.33 60.47-1.03 59.82-0.73 58.77-0.41 57.72-0.1 56.32 0.16 54.92 0.43 53.27 0.43L53.27 0.43Q50.82 0.43 49.31-0.38 47.8-1.18 46.95-2.59 46.1-4 45.81-5.93 45.52-7.85 45.52-10.08L45.52-10.08 45.52-23 46.52-24.5 43.02-23.5 38-23.5 37.5-27.5 50.27-27.5ZM45.37-32.5L45.37-37.5 50.42-37.5 50.42-32.5 45.37-32.5ZM81.22 0.43L81.22 0.43Q78.45 0.43 76.13-0.66 73.82-1.75 72.15-3.66 70.47-5.58 69.53-8.18 68.59-10.78 68.59-13.83L68.59-13.83Q68.59-16.85 69.5-19.44 70.4-22.03 72.05-23.91 73.7-25.8 76.03-26.86 78.37-27.93 81.22-27.93L81.22-27.93Q84-27.93 86.27-26.86 88.55-25.8 90.18-23.91 91.82-22.03 92.72-19.44 93.62-16.85 93.62-13.83L93.62-13.83Q93.62-10.78 92.76-8.18 91.9-5.58 90.28-3.66 88.67-1.75 86.37-0.66 84.07 0.43 81.22 0.43ZM88.87-13.15L88.87-13.15Q88.87-15.18 88.45-17.13 88.02-19.07 87.09-20.61 86.17-22.15 84.7-23.1 83.22-24.05 81.12-24.05L81.12-24.05Q79.12-24.05 77.65-23.23 76.17-22.4 75.22-21.03 74.27-19.65 73.81-17.9 73.34-16.15 73.34-14.3L73.34-14.3Q73.34-12.28 73.81-10.33 74.27-8.38 75.23-6.85 76.2-5.33 77.71-4.39 79.22-3.45 81.32-3.45L81.32-3.45Q83.3-3.45 84.73-4.28 86.17-5.1 87.08-6.46 88-7.83 88.43-9.56 88.87-11.3 88.87-13.15ZM122.99-26.18L121.54-22.48Q121.07-22.7 120.41-22.99 119.74-23.28 118.92-23.51 118.09-23.75 117.11-23.91 116.12-24.08 114.99-24.08L114.99-24.08Q113.47-24.08 112.02-23.93 110.57-23.78 109.44-23.38 108.32-22.98 107.63-22.3 106.94-21.63 106.94-20.55L106.94-20.55Q106.94-19.65 107.62-19.01 108.29-18.38 109.38-17.91 110.47-17.45 111.84-17.11 113.22-16.78 114.62-16.48 116.02-16.18 117.32-15.89 118.62-15.6 119.57-15.25L119.57-15.25Q120.67-14.83 121.63-14.18 122.59-13.53 123.32-12.66 124.04-11.8 124.46-10.76 124.87-9.73 124.87-8.53L124.87-8.53Q124.87-6.9 124.24-5.61 123.62-4.33 122.56-3.34 121.49-2.35 120.09-1.64 118.69-0.93 117.13-0.46 115.57 0 113.96 0.21 112.34 0.43 110.87 0.43L110.87 0.43Q110.02 0.43 108.76 0.26 107.49 0.1 106.18-0.19 104.87-0.48 103.69-0.88 102.52-1.28 101.87-1.73L101.87-1.73 103.52-5.28Q104.12-4.98 105.09-4.67 106.07-4.38 107.14-4.13 108.22-3.88 109.23-3.73 110.24-3.58 110.92-3.58L110.92-3.58Q111.69-3.58 112.66-3.66 113.62-3.75 114.63-3.96 115.64-4.17 116.61-4.54 117.57-4.9 118.32-5.45 119.07-6 119.53-6.75 119.99-7.5 119.99-8.5L119.99-8.5Q119.99-9.47 119.34-10.15 118.69-10.83 117.62-11.3 116.54-11.78 115.21-12.11 113.87-12.45 112.47-12.75 111.07-13.05 109.77-13.36 108.47-13.68 107.49-14.15L107.49-14.15Q106.07-14.83 105.13-15.61 104.19-16.4 103.63-17.28 103.07-18.15 102.84-19.1 102.62-20.05 102.62-21.05L102.62-21.05Q102.62-22.83 103.63-24.13 104.64-25.43 106.34-26.26 108.04-27.1 110.24-27.51 112.44-27.93 114.84-27.93L114.84-27.93Q116.14-27.93 117.38-27.78 118.62-27.63 119.71-27.38 120.79-27.13 121.64-26.81 122.49-26.5 122.99-26.18L122.99-26.18ZM157.24-4.5L157.74 0 152.74 0 152.74-4.05 150.39-1.25Q149.97-0.93 149.3-0.63 148.64-0.33 147.89-0.09 147.14 0.15 146.37 0.29 145.59 0.43 144.89 0.43L144.89 0.43Q143.02 0.43 141.12-0.16 139.22-0.75 137.69-1.89 136.17-3.03 135.2-4.71 134.24-6.4 134.24-8.6L134.24-8.6Q134.24-10.93 135.23-12.61 136.22-14.3 137.81-15.4 139.42-16.5 141.47-17.03 143.52-17.55 145.62-17.55L145.62-17.55Q147.99-17.55 149.74-17.29 151.49-17.03 152.74-16.55L152.74-16.55 152.74-17.63Q152.74-19.1 152.38-20.28 152.02-21.45 151.24-22.26 150.47-23.08 149.25-23.5 148.04-23.93 146.37-23.93L146.37-23.93Q144.79-23.93 143.65-23.74 142.52-23.55 141.54-23.33L141.54-23.33Q140.97-23.2 140.44-23.05 139.92-22.9 139.42-22.75L139.42-22.75 137.62-26.1Q138.67-26.58 140.12-27L140.12-27Q141.31-27.35 142.85-27.64 144.39-27.93 146.62-27.93L146.62-27.93Q149.49-27.93 151.52-27.15 153.54-26.38 154.81-24.98 156.09-23.58 156.67-21.61 157.24-19.65 157.24-17.25L157.24-17.25 157.24-4.5ZM152.74-6.85L152.74-13.13 151.24-13.33Q150.89-13.35 150.31-13.4 149.74-13.45 149.06-13.48L149.06-13.48 147.74-13.53Q147.09-13.55 146.62-13.55L146.62-13.55Q145.22-13.55 143.87-13.3 142.52-13.05 141.45-12.48 140.39-11.9 139.73-10.96 139.06-10.03 139.06-8.63L139.06-8.63Q139.06-7.5 139.56-6.58 140.06-5.65 140.9-4.98 141.74-4.3 142.83-3.94 143.92-3.58 145.09-3.58L145.09-3.58Q147.42-3.58 149.27-4.46 151.12-5.35 152.74-6.85L152.74-6.85ZM185.24 0.78L185.24-3.38 183.06-0.63Q182.84-0.48 182.43-0.3 182.01-0.13 181.41 0.04 180.81 0.2 180.01 0.31 179.21 0.43 178.24 0.43L178.24 0.43Q176.71 0.43 175.24-0.08 173.76-0.58 172.43-1.5 171.09-2.43 169.96-3.71 168.84-5 168-6.56 167.16-8.13 166.7-9.91 166.24-11.7 166.24-13.63L166.24-13.63Q166.24-16.55 167.19-19.15 168.14-21.75 169.86-23.7 171.59-25.65 174.01-26.79 176.44-27.93 179.39-27.93L179.39-27.93Q180.31-27.93 181.2-27.85 182.09-27.78 182.86-27.5L182.86-27.5 185.24-23.95 185.24-28 189.74-27.5 189.74 1.15Q189.74 3.6 188.94 5.75 188.14 7.9 186.61 9.49 185.09 11.08 182.86 12 180.64 12.93 177.79 12.93L177.79 12.93Q175.81 12.93 174.33 12.43 172.84 11.93 171.79 11.33L171.79 11.33Q171.19 10.98 170.66 10.58 170.14 10.18 169.71 9.7L169.71 9.7 172.16 6.95Q172.51 7.23 172.93 7.48 173.34 7.73 173.79 7.95L173.79 7.95Q174.56 8.33 175.59 8.63 176.61 8.93 177.81 8.93L177.81 8.93Q179.36 8.93 180.71 8.29 182.06 7.65 183.08 6.55 184.09 5.45 184.66 3.96 185.24 2.48 185.24 0.78L185.24 0.78ZM185.24-6.88L185.24-20.85Q184.59-21.68 183.66-22.38L183.66-22.38Q182.89-22.95 181.79-23.44 180.69-23.93 179.26-23.93L179.26-23.93Q177.76-23.93 176.56-23.45 175.36-22.98 174.45-22.18 173.54-21.38 172.88-20.31 172.21-19.25 171.8-18.06 171.39-16.88 171.19-15.66 170.99-14.45 170.99-13.33L170.99-13.33Q170.99-11.2 171.65-9.41 172.31-7.63 173.39-6.34 174.46-5.05 175.84-4.33 177.21-3.6 178.64-3.6L178.64-3.6Q179.91-3.6 180.91-3.88 181.91-4.15 182.71-4.61 183.51-5.08 184.13-5.66 184.74-6.25 185.24-6.88L185.24-6.88ZM218.11-5.9L220.84-3.23Q220.06-2.43 219.14-1.75 218.21-1.07 217.09-0.59 215.96-0.1 214.6 0.16 213.24 0.43 211.56 0.43L211.56 0.43Q208.24 0.43 205.81-0.75 203.39-1.93 201.81-3.9 200.24-5.88 199.49-8.43 198.74-10.98 198.74-13.75L198.74-13.75Q198.74-15.53 199.1-17.26 199.46-19 200.15-20.58 200.84-22.15 201.87-23.5 202.91-24.85 204.27-25.83 205.64-26.8 207.3-27.36 208.96-27.93 210.94-27.93L210.94-27.93Q213.64-27.93 215.81-27.05 217.99-26.18 219.51-24.6 221.04-23.03 221.86-20.81 222.69-18.6 222.69-15.95L222.69-15.95Q222.69-15.18 222.64-14.25 222.59-13.33 222.49-12.5L222.49-12.5 203.49-12.5Q203.49-10.58 204.09-8.94 204.69-7.3 205.72-6.11 206.76-4.93 208.17-4.25 209.59-3.58 211.24-3.58L211.24-3.58Q212.84-3.58 213.97-3.81 215.11-4.05 215.9-4.4 216.69-4.75 217.21-5.15 217.74-5.55 218.11-5.9L218.11-5.9ZM207.11-16.25L218.29-16.25 218.29-17.35Q218.29-18.78 217.72-19.98 217.16-21.18 216.2-22.06 215.24-22.95 213.97-23.45 212.71-23.95 211.31-23.95L211.31-23.95Q209.64-23.95 208.37-23.41 207.11-22.88 206.21-22.04 205.31-21.2 204.76-20.2 204.21-19.2 203.96-18.3L203.96-18.3 202.49-15.45 207.11-16.25Z" opacity="1" transform="matrix(1,0,0,1,0,0)" fill="#152232" class="wordmark-text-0" data-fill-palette-color="primary" id="text-0"></path></svg></g></svg></g></svg></g></svg></g></svg></g></svg></g></svg></g><path d="M196.199 89.217L196.199 29.911 8.821 29.911 8.821 217.289 196.199 217.289 196.199 157.983 191.08 157.983 191.08 212.17 13.94 212.17 13.94 35.03 191.08 35.03 191.08 89.217Z" fill="#5ebc67" stroke="transparent" data-fill-palette-color="tertiary"></path></svg></g><defs></defs></svg><rect width="395.52" height="247.2" fill="none" stroke="none" visibility="hidden"></rect></g></svg></g></svg>